<svg width="29" height="28" viewBox="0 0 29 28" fill="none" xmlns="http://www.w3.org/2000/svg">
<g id="svg">
<path id="Vector" d="M21.0809 26.5456C19.7768 26.5456 18.3975 26.2383 16.9431 25.6239C15.5431 25.025 14.1496 24.2226 12.7625 23.2167C11.3729 22.2107 10.0624 21.092 8.83087 19.8606C7.59939 18.6291 6.4755 17.3146 5.45921 15.9172C4.44291 14.5172 3.65476 13.1457 3.09476 11.8028C2.48032 10.3483 2.1731 8.96 2.1731 7.63778C2.1731 6.72259 2.33643 5.85019 2.6631 5.02056C2.98976 4.19093 3.50698 3.44944 4.21476 2.79611C5.10921 1.90167 6.11643 1.45444 7.23643 1.45444C7.7031 1.45444 8.14124 1.55685 8.55087 1.76167C9.03569 1.96648 9.40902 2.275 9.67087 2.68722L12.3814 6.51778C12.6251 6.85222 12.8118 7.17889 12.9414 7.49778C13.0918 7.85037 13.167 8.19519 13.167 8.53222C13.167 8.97815 13.0451 9.40722 12.8014 9.81944C12.5966 10.1928 12.3361 10.5285 12.0198 10.8267L11.2342 11.6356L11.2653 11.7211C11.4701 12.0737 11.7864 12.5028 12.2142 13.0083C12.8494 13.7524 13.4003 14.3578 13.867 14.8244C14.5929 15.5348 15.1892 16.0857 15.6559 16.4772C16.234 16.962 16.6903 17.2874 17.0248 17.4533L16.9975 17.5117L17.8375 16.6717C18.2109 16.2983 18.5609 16.0183 18.8875 15.8317C19.2142 15.645 19.5772 15.5374 19.9764 15.5089C20.3783 15.483 20.7749 15.553 21.1664 15.7189C21.5009 15.8693 21.8275 16.0559 22.1464 16.2789L26.0314 19.0206C26.4618 19.3187 26.7651 19.6869 26.9414 20.125C27.1203 20.5631 27.2098 20.987 27.2098 21.3967C27.2098 21.9567 27.0879 22.5024 26.8442 23.0339C26.6031 23.5654 26.2868 24.0372 25.8953 24.4494C25.242 25.1754 24.5044 25.7069 23.6825 26.0439C22.8633 26.3783 21.9961 26.5456 21.0809 26.5456ZM7.23643 3.21611C6.60124 3.21611 6.00495 3.49611 5.44754 4.05611C4.90569 4.54093 4.5181 5.08667 4.28476 5.69333C4.05143 6.3 3.93476 6.94815 3.93476 7.63778C3.93476 8.73704 4.18624 9.89333 4.68921 11.1067C5.23106 12.3744 5.96865 13.6513 6.90198 14.9372C7.83273 16.2231 8.88532 17.4494 10.0598 18.6161C11.2368 19.7802 12.4683 20.8341 13.7542 21.7778C15.0401 22.7189 16.3261 23.4591 17.612 23.9983C19.7198 24.8954 21.5203 25.0354 23.0137 24.4183C23.6099 24.1591 24.1414 23.7676 24.6081 23.2439C24.8674 22.9639 25.0903 22.6372 25.277 22.2639C25.4092 21.9865 25.4753 21.6883 25.4753 21.3694C25.4753 21.1828 25.4286 20.987 25.3353 20.7822C25.2601 20.6344 25.1577 20.523 25.0281 20.4478L21.1392 17.6789C20.9136 17.5285 20.6985 17.4067 20.4936 17.3133L20.412 17.2861C20.3005 17.2317 20.202 17.2044 20.1164 17.2044C20.0335 17.2044 19.9077 17.2602 19.7392 17.3717C19.5344 17.465 19.3101 17.6322 19.0664 17.8733L18.172 18.7678C17.949 18.9726 17.6833 19.1087 17.3748 19.1761C17.0688 19.2409 16.7759 19.2176 16.4959 19.1061L16.1886 18.9661C15.7038 18.7043 15.1438 18.3128 14.5086 17.7917C13.9487 17.3069 13.3148 16.7183 12.607 16.0261C12.0288 15.4298 11.4598 14.8063 10.8998 14.1556C10.3398 13.5022 9.93921 12.9513 9.6981 12.5028L9.55809 12.1411C9.48291 11.8974 9.44532 11.7017 9.44532 11.5539C9.44532 11.1235 9.59439 10.7683 9.89254 10.4883L10.787 9.56667C11.0125 9.3437 11.1811 9.12982 11.2925 8.925C11.3859 8.77463 11.4325 8.6437 11.4325 8.53222C11.4325 8.42074 11.3949 8.28074 11.3198 8.11222C11.2446 7.9437 11.124 7.74796 10.9581 7.525L8.24365 3.69056C8.13217 3.54278 7.98698 3.42741 7.8081 3.34444C7.6318 3.25889 7.44124 3.21611 7.23643 3.21611ZM16.9975 17.5117L16.8031 18.2933L17.1103 17.4844C17.0533 17.4844 17.0157 17.4935 16.9975 17.5117ZM22.3136 11.3828C22.0699 11.3828 21.8599 11.2946 21.6836 11.1183C21.5074 10.942 21.4192 10.7372 21.4192 10.5039C21.4192 10.2706 21.3168 9.95815 21.112 9.56667C20.9046 9.17519 20.6336 8.80185 20.2992 8.44667C19.9622 8.09407 19.6122 7.81407 19.2492 7.60667C18.8862 7.40185 18.5466 7.29944 18.2303 7.29944C17.9866 7.29944 17.7766 7.2113 17.6003 7.035C17.424 6.8587 17.3359 6.65389 17.3359 6.42056C17.3359 6.18722 17.424 5.98241 17.6003 5.80611C17.7766 5.62722 17.9866 5.53778 18.2303 5.53778C18.7877 5.53778 19.3555 5.68685 19.9336 5.985C20.5118 6.28315 21.0627 6.70315 21.5864 7.245C22.0712 7.76611 22.4575 8.32093 22.7453 8.90944C23.0357 9.49537 23.1809 10.0217 23.1809 10.4883C23.1809 10.732 23.0914 10.942 22.9125 11.1183C22.7362 11.2946 22.5366 11.3828 22.3136 11.3828ZM26.397 11.3828C26.1533 11.3828 25.9433 11.2946 25.767 11.1183C25.5907 10.942 25.5025 10.732 25.5025 10.4883C25.5025 9.18426 25.1759 7.97222 24.5225 6.85222C23.8692 5.73482 22.9838 4.84944 21.8664 4.19611C20.7464 3.54278 19.5344 3.21611 18.2303 3.21611C17.9866 3.21611 17.7766 3.12796 17.6003 2.95167C17.424 2.77537 17.3359 2.57056 17.3359 2.33722C17.3359 2.10389 17.424 1.89778 17.6003 1.71889C17.7766 1.54259 17.9866 1.45444 18.2303 1.45444C19.8507 1.45444 21.3699 1.86537 22.7881 2.68722C24.1492 3.48833 25.2303 4.56944 26.0314 5.93056C26.8533 7.3487 27.2642 8.86796 27.2642 10.4883C27.2642 10.732 27.1761 10.942 26.9998 11.1183C26.8209 11.2946 26.6199 11.3828 26.397 11.3828Z" fill="#646464"/>
</g>
</svg>
