<svg width="16" height="16" viewBox="0 0 16 16" fill="none" xmlns="http://www.w3.org/2000/svg">
<g id="svg">
<path id="Vector" d="M1.20265 2.80833C1.46272 2.3486 1.82292 1.97847 2.28325 1.69791C2.74359 1.41874 3.24843 1.27916 3.79777 1.27916H9.4407C9.57004 1.27916 9.67991 1.3243 9.77031 1.41458C9.86071 1.50347 9.9059 1.61319 9.9059 1.74374V3.15208H10.5964C10.8954 3.15208 11.1805 3.22985 11.4517 3.38541C11.7215 3.53958 11.9315 3.75138 12.0817 4.02083L14.2116 7.75208C14.2617 7.83263 14.2867 7.91805 14.2867 8.00833V11.125C14.2867 11.5542 14.1817 11.9458 13.9717 12.3C13.7617 12.6555 13.4766 12.9382 13.1164 13.1479C12.7562 13.3576 12.3613 13.4625 11.9315 13.4625H11.7208C11.6402 13.7514 11.49 14.0007 11.2702 14.2104C11.1103 14.3715 10.9253 14.4965 10.7153 14.5854C10.5053 14.6757 10.2877 14.7208 10.0624 14.7208C9.83706 14.7208 9.61732 14.6757 9.40315 14.5854C9.18759 14.4965 8.99984 14.3715 8.8399 14.2104C8.6299 14.0007 8.48457 13.7514 8.4039 13.4625H6.70998C6.62932 13.7514 6.48399 14.0007 6.27398 14.2104C6.11405 14.3715 5.9263 14.4965 5.71073 14.5854C5.49656 14.6757 5.27682 14.7208 5.05152 14.7208C4.82622 14.7208 4.60857 14.6757 4.39857 14.5854C4.18857 14.4965 4.0036 14.3715 3.84367 14.2104C3.62393 14.0007 3.47373 13.7514 3.39307 13.4625H3.18237C2.75263 13.4625 2.35766 13.3576 1.99746 13.1479C1.63726 12.9382 1.35215 12.6555 1.14215 12.3C0.932149 11.9458 0.827148 11.5542 0.827148 11.125C0.827148 10.9944 0.872347 10.884 0.962746 10.7937C1.05175 10.7049 1.16162 10.6604 1.29235 10.6604C1.42308 10.6604 1.53573 10.7049 1.6303 10.7937C1.72487 10.884 1.77216 10.9944 1.77216 11.125C1.77216 11.5139 1.90984 11.8458 2.18521 12.1208C2.46057 12.3958 2.79296 12.5333 3.18237 12.5333H3.39307C3.47373 12.243 3.62393 11.993 3.84367 11.7833C4.0036 11.6236 4.18857 11.4986 4.39857 11.4083C4.60857 11.3194 4.82622 11.275 5.05152 11.275C5.27682 11.275 5.49656 11.3194 5.71073 11.4083C5.9263 11.4986 6.11405 11.6236 6.27398 11.7833C6.48399 11.993 6.62932 12.243 6.70998 12.5333H8.4039C8.48457 12.243 8.6299 11.993 8.8399 11.7833C8.99984 11.6236 9.18759 11.4986 9.40315 11.4083C9.61732 11.3194 9.83706 11.275 10.0624 11.275C10.2877 11.275 10.5053 11.3194 10.7153 11.4083C10.9253 11.4986 11.1152 11.6264 11.2848 11.7917C11.4559 11.9555 11.5811 12.1528 11.6603 12.3833L11.7208 12.5333H11.9315C12.3209 12.5333 12.6533 12.3958 12.9287 12.1208C13.204 11.8458 13.3417 11.5139 13.3417 11.125V9.71666H11.9315C11.6311 9.71666 11.3731 9.60902 11.1576 9.39374C10.9434 9.17846 10.8363 8.92152 10.8363 8.62291V6.74791C10.8363 6.4493 10.9434 6.19235 11.1576 5.97708C11.3731 5.7618 11.6311 5.65416 11.9315 5.65416L11.2702 4.48541C11.2007 4.36596 11.1033 4.27152 10.9782 4.20208C10.853 4.13124 10.7202 4.09583 10.5797 4.09583H9.9059V7.99166C9.9059 8.30138 9.8308 8.5861 9.6806 8.84583C9.5304 9.10555 9.32736 9.31319 9.07146 9.46874C8.81695 9.62291 8.5395 9.70555 8.2391 9.71666H7.56529C7.43456 9.71666 7.32191 9.67152 7.22734 9.58124C7.13138 9.49096 7.0834 9.38124 7.0834 9.25208C7.0834 9.12152 7.1286 9.0111 7.21899 8.92083C7.30939 8.83194 7.41926 8.78749 7.5486 8.78749H8.19529C8.40529 8.77638 8.5854 8.69652 8.7356 8.54791C8.8858 8.39791 8.9609 8.21805 8.9609 8.00833V2.22291H3.79777C3.42783 2.22291 3.08502 2.31805 2.76932 2.50833C2.45501 2.69722 2.20746 2.94652 2.02666 3.25624C1.96686 3.36735 1.87438 3.44235 1.74921 3.48124C1.62404 3.52152 1.50444 3.50902 1.3904 3.44374C1.27497 3.37985 1.19987 3.28541 1.1651 3.16041C1.13033 3.03541 1.14285 2.91805 1.20265 2.80833ZM9.2759 12.9979V13.0125C9.28563 13.2222 9.3656 13.4021 9.5158 13.5521C9.666 13.7021 9.84819 13.7771 10.0624 13.7771C10.2779 13.7771 10.4608 13.7021 10.611 13.5521C10.7612 13.4021 10.8363 13.2174 10.8363 12.9979C10.8363 12.9174 10.8259 12.8424 10.805 12.7729C10.755 12.6132 10.6625 12.4805 10.5276 12.375C10.3927 12.2708 10.2355 12.2187 10.0561 12.2187C9.8461 12.2187 9.66322 12.2958 9.50746 12.45C9.35308 12.6055 9.2759 12.7882 9.2759 12.9979ZM11.9315 8.78749H13.3417V8.12708L12.4718 6.59791H11.9315C11.8912 6.59791 11.8557 6.61319 11.8251 6.64374C11.7959 6.6743 11.7813 6.70902 11.7813 6.74791V8.62291C11.7813 8.6618 11.7959 8.6986 11.8251 8.73333C11.8557 8.76944 11.8912 8.78749 11.9315 8.78749ZM5.05778 5.02499H1.29235C1.16162 5.02499 1.05175 5.07291 0.962746 5.16874C0.872347 5.26319 0.827148 5.37499 0.827148 5.50416C0.827148 5.63472 0.872347 5.74513 0.962746 5.83541C1.05175 5.9243 1.16162 5.96874 1.29235 5.96874H5.05778C5.18851 5.96874 5.29908 5.9243 5.38947 5.83541C5.47848 5.74513 5.52298 5.63472 5.52298 5.50416C5.52298 5.37499 5.47848 5.26319 5.38947 5.16874C5.29908 5.07291 5.18851 5.02499 5.05778 5.02499ZM3.79777 6.91458H1.29235C1.16162 6.91458 1.05175 6.95902 0.962746 7.04791C0.872347 7.13819 0.827148 7.24791 0.827148 7.37708C0.827148 7.50763 0.872347 7.61805 0.962746 7.70833C1.05175 7.79721 1.16162 7.84166 1.29235 7.84166H3.79777C3.9285 7.84166 4.04115 7.79721 4.13572 7.70833C4.23029 7.61805 4.27758 7.50763 4.27758 7.37708C4.27758 7.24791 4.23029 7.13819 4.13572 7.04791C4.04115 6.95902 3.9285 6.91458 3.79777 6.91458ZM2.55236 8.78749H1.29235C1.16162 8.78749 1.05175 8.83194 0.962746 8.92083C0.872347 9.0111 0.827148 9.12152 0.827148 9.25208C0.827148 9.38124 0.872347 9.49096 0.962746 9.58124C1.05175 9.67152 1.16162 9.71666 1.29235 9.71666H2.55236C2.68309 9.71666 2.79296 9.67152 2.88197 9.58124C2.97237 9.49096 3.01757 9.38124 3.01757 9.25208C3.01757 9.12152 2.97237 9.0111 2.88197 8.92083C2.79296 8.83194 2.68309 8.78749 2.55236 8.78749Z" fill="#161616"/>
</g>
</svg>
