<svg width="21" height="21" viewBox="0 0 21 21" fill="none" xmlns="http://www.w3.org/2000/svg">
<g id="svg">
<path id="Vector" d="M10.511 19.18C8.88511 19.18 7.37308 18.7736 5.97493 17.9606C4.62863 17.1624 3.55641 16.0902 2.75826 14.7439C1.9453 13.3458 1.53882 11.8374 1.53882 10.2189C1.53882 8.6004 1.9453 7.09207 2.75826 5.69392C3.55641 4.34763 4.62863 3.27541 5.97493 2.47726C7.37308 1.66429 8.88141 1.25781 10.4999 1.25781C12.1184 1.25781 13.6268 1.66429 15.0249 2.47726C16.3712 3.27541 17.4434 4.34763 18.2416 5.69392C19.0546 7.09207 19.461 8.6004 19.461 10.2189C19.461 11.8374 19.0546 13.3458 18.2416 14.7439C17.4434 16.0902 16.3712 17.1624 15.0249 17.9606C13.6268 18.7736 12.1222 19.18 10.511 19.18ZM10.511 2.51615C9.11104 2.51615 7.81197 2.86244 6.61382 3.55503C5.45456 4.24763 4.52863 5.17355 3.83604 6.33281C3.14345 7.53096 2.79715 8.82633 2.79715 10.2189C2.79715 11.6115 3.14345 12.9069 3.83604 14.105C4.52863 15.2643 5.45456 16.1902 6.61382 16.8828C7.81197 17.5754 9.10734 17.9217 10.4999 17.9217C11.8925 17.9217 13.1879 17.5754 14.386 16.8828C15.5453 16.1902 16.4712 15.2643 17.1638 14.105C17.8564 12.9069 18.2027 11.6115 18.2027 10.2189C18.2027 8.82633 17.8564 7.53096 17.1638 6.33281C16.4712 5.17355 15.5453 4.24763 14.386 3.55503C13.1879 2.86244 11.8962 2.51615 10.511 2.51615ZM13.586 13.4856C13.4805 13.4986 13.374 13.4717 13.2666 13.405L10.6888 11.8661C10.3703 11.668 10.1046 11.3819 9.8916 11.0078C9.67863 10.6356 9.57215 10.2624 9.57215 9.88837V6.4717C9.57215 6.29948 9.63511 6.15318 9.76104 6.03281C9.88697 5.91244 10.0333 5.85226 10.1999 5.85226C10.3666 5.85226 10.5129 5.91244 10.6388 6.03281C10.7666 6.15318 10.8305 6.29948 10.8305 6.4717V9.88837C10.8305 10.0495 10.8833 10.2198 10.9888 10.3995C11.0962 10.5791 11.2101 10.7087 11.3305 10.7884L13.9277 12.3273C14.074 12.4198 14.1666 12.5495 14.2055 12.7161C14.2462 12.8828 14.2194 13.0393 14.1249 13.1856C14.0064 13.3856 13.8268 13.4856 13.586 13.4856Z" fill="#161616"/>
</g>
</svg>
