<svg width="29" height="28" viewBox="0 0 29 28" fill="none" xmlns="http://www.w3.org/2000/svg">
<g id="svg">
<path id="Vector" d="M10.2991 18.6861C10.0761 18.6861 9.87518 18.6019 9.69629 18.4333C9.51999 18.2648 9.43185 18.06 9.43185 17.8189C9.43185 17.5752 9.5161 17.3704 9.68462 17.2044L17.3457 9.56667C17.5143 9.39815 17.7204 9.31389 17.9641 9.31389C18.2052 9.31389 18.41 9.39815 18.5785 9.56667C18.747 9.73519 18.8313 9.94 18.8313 10.1811C18.8313 10.4248 18.747 10.6296 18.5785 10.7956L10.9407 18.4333C10.7541 18.6019 10.5402 18.6861 10.2991 18.6861ZM10.8007 12.95C10.15 12.95 9.60036 12.727 9.15184 12.2811C8.70333 11.8326 8.47907 11.2907 8.47907 10.6556C8.47907 10.023 8.70333 9.47852 9.15184 9.02222C9.60036 8.56333 10.1461 8.33389 10.7891 8.33389C11.432 8.33389 11.9765 8.56333 12.4224 9.02222C12.8709 9.47852 13.0952 10.023 13.0952 10.6556C13.0952 11.2907 12.8709 11.8326 12.4224 12.2811C11.9765 12.727 11.4359 12.95 10.8007 12.95ZM10.8007 10.0994C10.6348 10.0994 10.5 10.1552 10.3963 10.2667C10.2926 10.3781 10.2407 10.513 10.2407 10.6711C10.2407 10.8293 10.2926 10.9602 10.3963 11.0639C10.5 11.165 10.6309 11.2156 10.7891 11.2156C10.9472 11.2156 11.082 11.165 11.1935 11.0639C11.305 10.9602 11.3607 10.8293 11.3607 10.6711C11.3607 10.513 11.305 10.3781 11.1935 10.2667C11.082 10.1552 10.9511 10.0994 10.8007 10.0994ZM18.4113 19.635C17.7761 19.635 17.2355 19.412 16.7896 18.9661C16.3411 18.5176 16.1168 17.977 16.1168 17.3444C16.1168 16.7093 16.3411 16.1635 16.7896 15.7072C17.2355 15.2509 17.7761 15.0228 18.4113 15.0228C19.0439 15.0228 19.5896 15.2509 20.0485 15.7072C20.5048 16.1635 20.733 16.7093 20.733 17.3444C20.733 17.977 20.5048 18.5176 20.0485 18.9661C19.5896 19.412 19.0439 19.635 18.4113 19.635ZM18.4113 16.7844C18.2609 16.7844 18.13 16.8402 18.0185 16.9517C17.907 17.0631 17.8513 17.198 17.8513 17.3561C17.8513 17.5143 17.907 17.6452 18.0185 17.7489C18.13 17.85 18.2648 17.9006 18.423 17.9006C18.5811 17.9006 18.712 17.85 18.8157 17.7489C18.9194 17.6452 18.9713 17.5143 18.9713 17.3561C18.9713 17.198 18.9194 17.0631 18.8157 16.9517C18.712 16.8402 18.5772 16.7844 18.4113 16.7844ZM14.328 26.5456C12.0517 26.5456 9.93481 25.9765 7.9774 24.8383C6.09259 23.7209 4.59148 22.2198 3.47407 20.335C2.33592 18.3776 1.76685 16.2659 1.76685 14C1.76685 11.7341 2.33592 9.62241 3.47407 7.665C4.59148 5.78019 6.09259 4.27907 7.9774 3.16167C9.93481 2.02352 12.0465 1.45444 14.3124 1.45444C16.5783 1.45444 18.69 2.02352 20.6474 3.16167C22.5322 4.27907 24.0333 5.78019 25.1507 7.665C26.2889 9.62241 26.858 11.7341 26.858 14C26.858 16.2659 26.2889 18.3776 25.1507 20.335C24.0333 22.2198 22.5322 23.7209 20.6474 24.8383C18.69 25.9765 16.5835 26.5456 14.328 26.5456ZM14.328 3.21611C12.368 3.21611 10.5493 3.70093 8.87185 4.67056C7.24888 5.64019 5.95259 6.93648 4.98296 8.55944C4.01333 10.2369 3.52851 12.0504 3.52851 14C3.52851 15.9496 4.01333 17.7631 4.98296 19.4406C5.95259 21.0635 7.24888 22.3598 8.87185 23.3294C10.5493 24.2991 12.3628 24.7839 14.3124 24.7839C16.262 24.7839 18.0755 24.2991 19.753 23.3294C21.3759 22.3598 22.6722 21.0635 23.6418 19.4406C24.6115 17.7631 25.0963 15.9496 25.0963 14C25.0963 12.0504 24.6115 10.2369 23.6418 8.55944C22.6722 6.93648 21.3759 5.64019 19.753 4.67056C18.0755 3.70093 16.2672 3.21611 14.328 3.21611Z" fill="#FF4B20"/>
</g>
</svg>
