<svg width="15" height="14" viewBox="0 0 15 14" fill="none" xmlns="http://www.w3.org/2000/svg">
<path d="M7.98658 9.80389C7.77109 9.80389 7.56533 9.76435 7.36931 9.68528C7.17329 9.6062 7.00064 9.48759 6.85135 9.32944L3.04259 5.52417C2.95821 5.43991 2.91602 5.3375 2.91602 5.21694C2.91602 5.09509 2.95821 4.99268 3.04259 4.90972C3.12567 4.82546 3.22822 4.78333 3.35025 4.78333C3.47097 4.78333 3.57353 4.82546 3.65791 4.90972L7.46667 8.71306C7.60687 8.85306 7.77758 8.92305 7.97879 8.92305C8.18001 8.92305 8.35071 8.85306 8.49091 8.71306L12.2997 4.90972C12.3841 4.82546 12.4866 4.78333 12.6073 4.78333C12.7294 4.78333 12.8319 4.82546 12.915 4.90972C12.9994 4.99268 13.0416 5.09509 13.0416 5.21694C13.0416 5.3375 12.9994 5.43991 12.915 5.52417L9.10624 9.32944C8.95695 9.48759 8.7843 9.6062 8.58827 9.68528C8.39225 9.76435 8.19169 9.80389 7.98658 9.80389Z" fill="#161616"/>
</svg>
