<svg width="16" height="16" viewBox="0 0 16 16" fill="none" xmlns="http://www.w3.org/2000/svg">
<g id="svg">
<path id="Vector" d="M15.2666 7.71868C15.2666 9.51591 14.6805 11.093 13.5083 12.4499C12.336 13.8069 10.8805 14.6222 9.1416 14.8958V9.8291H10.8416L11.1645 7.71868H9.1416V6.3416C9.1416 5.59994 9.53257 5.2291 10.3145 5.2291H11.2229V3.4416C10.6756 3.34438 10.1381 3.29577 9.61035 3.29577C8.77146 3.29577 8.10271 3.53952 7.6041 4.02702C7.10688 4.51591 6.85827 5.20966 6.85827 6.10827V7.71868H5.01243V9.8291H6.85827V14.8958C5.11938 14.6222 3.66382 13.8069 2.4916 12.4499C1.32077 11.093 0.735352 9.51591 0.735352 7.71868C0.735352 5.70757 1.44299 3.99368 2.85827 2.57702C4.27493 1.16174 5.98882 0.454102 7.99993 0.454102C10.011 0.454102 11.7249 1.16174 13.1416 2.57702C14.5583 3.99368 15.2666 5.70757 15.2666 7.71868Z" fill="#646464"/>
</g>
</svg>
