<svg width="25" height="24" viewBox="0 0 25 24" fill="none" xmlns="http://www.w3.org/2000/svg">
<path d="M17.3379 19.7333H7.91007C7.54087 19.7333 7.19281 19.6167 6.86587 19.3833C6.5367 19.1522 6.30874 18.8611 6.18196 18.51L2.02851 6.93C1.8061 6.25889 1.73493 5.70667 1.81499 5.27333C1.89506 4.93778 2.05853 4.67889 2.3054 4.49667C2.5545 4.31222 2.84696 4.22778 3.1828 4.24333C3.62984 4.27667 4.14138 4.50111 4.71741 4.91667L8.60398 7.69667C8.73298 7.77667 8.84085 7.80444 8.92758 7.78C9.01655 7.75556 9.08438 7.67222 9.13109 7.53L10.8859 2.83C11.1239 2.22111 11.4274 1.78111 11.7966 1.51C12.0524 1.31889 12.3282 1.22333 12.624 1.22333C12.9198 1.22333 13.1956 1.31889 13.4514 1.51C13.8205 1.78111 14.1241 2.22111 14.3621 2.83L16.1169 7.53C16.1636 7.67222 16.2348 7.75556 16.3304 7.78C16.426 7.80444 16.5306 7.77667 16.644 7.69667L20.2904 5.08333C21.3624 4.31667 22.2187 4.16444 22.8592 4.62667C23.115 4.82 23.2751 5.09222 23.3396 5.44333C23.4352 5.92333 23.3629 6.50667 23.1227 7.19333L19.066 18.51C18.9393 18.8611 18.7113 19.1522 18.3821 19.3833C18.0552 19.6167 17.7071 19.7333 17.3379 19.7333ZM3.3029 5.80333C3.33404 6.01 3.38185 6.20889 3.44635 6.4L7.59648 18.0067C7.61204 18.0533 7.65653 18.1011 7.72992 18.15C7.80109 18.1989 7.86114 18.2233 7.91007 18.2233H17.3379C17.3868 18.2233 17.4469 18.1989 17.5181 18.15C17.5915 18.1011 17.6359 18.0533 17.6515 18.0067L21.6815 6.69C21.795 6.38556 21.8595 6.12111 21.875 5.89667C21.6838 5.97667 21.4513 6.11333 21.1778 6.30667L17.5081 8.92C17.2523 9.09556 16.9843 9.21111 16.7041 9.26667C16.4238 9.32222 16.1514 9.31 15.8867 9.23C15.6243 9.15 15.3885 9.00667 15.1795 8.8C14.9726 8.59111 14.8125 8.35111 14.6991 8.08L12.9476 3.38C12.852 3.10889 12.7485 2.90889 12.6373 2.78C12.5239 2.90889 12.4116 3.10889 12.3004 3.38L10.5489 8.05667C10.4355 8.34333 10.2754 8.58667 10.0685 8.78667C9.85947 8.98667 9.62372 9.12667 9.36128 9.20667C9.09661 9.28667 8.82083 9.30222 8.53392 9.25333C8.24479 9.20667 7.98013 9.09556 7.73993 8.92L3.83001 6.11333C3.66987 6.00222 3.49417 5.89889 3.3029 5.80333ZM18.1319 22.7533H7.11608C6.90924 22.7533 6.73353 22.6778 6.58897 22.5267C6.44441 22.3733 6.37212 22.1967 6.37212 21.9967C6.37212 21.7967 6.44441 21.6211 6.58897 21.47C6.73353 21.3189 6.90924 21.2433 7.11608 21.2433H18.1319C18.3388 21.2433 18.5145 21.3189 18.659 21.47C18.8036 21.6211 18.8759 21.7967 18.8759 21.9967C18.8759 22.1967 18.8036 22.3733 18.659 22.5267C18.5145 22.6778 18.3388 22.7533 18.1319 22.7533ZM15.1328 14.7467H10.1152C9.9084 14.7467 9.7327 14.6744 9.58813 14.53C9.44357 14.3856 9.37129 14.21 9.37129 14.0033C9.37129 13.7944 9.44357 13.6178 9.58813 13.4733C9.7327 13.3311 9.9084 13.26 10.1152 13.26H15.1328C15.3396 13.26 15.5153 13.3311 15.6599 13.4733C15.8044 13.6178 15.8767 13.7944 15.8767 14.0033C15.8767 14.21 15.8044 14.3856 15.6599 14.53C15.5153 14.6744 15.3396 14.7467 15.1328 14.7467Z" fill="#161616"/>
</svg>
