<svg width="9" height="12" viewBox="0 0 9 12" fill="none" xmlns="http://www.w3.org/2000/svg">
<path d="M5.81396 5.76698L1.38718 9.53353C1.2105 9.68506 1.10107 9.90043 1.08285 10.1325C1.06463 10.3645 1.1391 10.5943 1.28997 10.7716C1.44083 10.9488 1.65578 11.0591 1.88776 11.0782C2.11974 11.0973 2.34983 11.0237 2.52765 10.8735L7.75805 6.42284C7.85612 6.33918 7.93463 6.235 7.98803 6.11767C8.04143 6.00034 8.06842 5.87272 8.0671 5.74382C8.06577 5.61492 8.03616 5.48788 7.98036 5.37167C7.92456 5.25546 7.84392 5.15293 7.74415 5.0713L2.42331 0.729199C2.24252 0.581982 2.01067 0.512551 1.77872 0.536158C1.54676 0.559764 1.33367 0.674477 1.18623 0.855099C1.0388 1.03572 0.969091 1.26748 0.99242 1.49946C1.01575 1.73144 1.13021 1.94468 1.31065 2.09233L5.81396 5.76698Z" fill="#FAFAFA"/>
</svg>
