<svg width="21" height="21" viewBox="0 0 21 21" fill="none" xmlns="http://www.w3.org/2000/svg">
<g id="svg">
<path id="Vector" d="M14.6666 17.9217H6.33326C4.81474 17.9217 3.63604 17.505 2.79715 16.6717C1.95826 15.8402 1.53882 14.6587 1.53882 13.1272V7.31057C1.53882 5.77909 1.95826 4.59761 2.79715 3.76612C3.63604 2.93279 4.81474 2.51612 6.33326 2.51612H12.1694C12.3416 2.51612 12.4879 2.57631 12.6083 2.69668C12.7286 2.81705 12.7888 2.96335 12.7888 3.13557C12.7888 3.30964 12.7286 3.45594 12.6083 3.57446C12.4879 3.69483 12.3416 3.75501 12.1694 3.75501H6.33326C5.13511 3.75501 4.24623 4.04853 3.6666 4.63557C3.08697 5.22075 2.79715 6.11242 2.79715 7.31057V13.1272C2.79715 14.3254 3.08697 15.217 3.6666 15.8022C4.24623 16.3893 5.13511 16.6828 6.33326 16.6828H14.6666C15.8647 16.6828 16.7536 16.3893 17.3333 15.8022C17.9129 15.217 18.2027 14.3254 18.2027 13.1272V8.9689C18.2027 8.79668 18.2657 8.65038 18.3916 8.53001C18.5175 8.40964 18.6638 8.34946 18.8305 8.34946C18.9972 8.34946 19.1444 8.40964 19.2722 8.53001C19.3981 8.65038 19.461 8.79668 19.461 8.9689V13.1272C19.461 14.6587 19.0416 15.8402 18.2027 16.6717C17.3638 17.505 16.1851 17.9217 14.6666 17.9217ZM10.4888 10.9495C10.1425 10.9495 9.79993 10.892 9.46104 10.7772C9.12215 10.6643 8.81937 10.5013 8.55271 10.2883L5.93326 8.21057C5.81474 8.0902 5.749 7.94668 5.73604 7.78001C5.72123 7.6152 5.76382 7.4689 5.86382 7.34112C5.96382 7.2152 6.09715 7.13927 6.26382 7.11335C6.43049 7.08557 6.58049 7.12538 6.71382 7.23279L9.33049 9.31057C9.63789 9.56242 10.024 9.68835 10.4888 9.68835C10.9555 9.68835 11.349 9.56242 11.6694 9.31057L12.6472 8.53001C12.7805 8.42446 12.9342 8.38094 13.1083 8.39946C13.2805 8.41983 13.4203 8.49668 13.5277 8.63001C13.6333 8.76335 13.6759 8.91705 13.6555 9.09112C13.637 9.26335 13.561 9.40316 13.4277 9.51057L12.4472 10.2883C12.1805 10.5013 11.8777 10.6643 11.5388 10.7772C11.1999 10.892 10.8499 10.9495 10.4888 10.9495ZM16.7444 7.51057C16.2647 7.51057 15.8147 7.38742 15.3944 7.14112C14.9759 6.89483 14.6462 6.5652 14.4055 6.15224C14.1666 5.73927 14.0472 5.2902 14.0472 4.80501C14.0472 4.31798 14.1666 3.8652 14.4055 3.44668C14.6462 3.02631 14.9759 2.69668 15.3944 2.45779C15.8147 2.21705 16.2675 2.09668 16.7527 2.09668C17.2397 2.09668 17.6897 2.21705 18.1027 2.45779C18.5157 2.69668 18.8453 3.02631 19.0916 3.44668C19.3379 3.8652 19.461 4.31798 19.461 4.80501C19.461 5.2902 19.3379 5.73927 19.0916 6.15224C18.8453 6.5652 18.5157 6.89483 18.1027 7.14112C17.6897 7.38742 17.237 7.51057 16.7444 7.51057ZM16.7444 3.33557C16.3444 3.33557 16.0009 3.47909 15.7138 3.76612C15.4286 4.05131 15.286 4.3939 15.286 4.7939C15.286 5.1939 15.4286 5.53742 15.7138 5.82446C16.0009 6.10964 16.3444 6.25224 16.7444 6.25224C17.1444 6.25224 17.487 6.10964 17.7722 5.82446C18.0592 5.53742 18.2027 5.1939 18.2027 4.7939C18.2027 4.3939 18.0592 4.05131 17.7722 3.76612C17.487 3.47909 17.1444 3.33557 16.7444 3.33557Z" fill="#161616"/>
</g>
</svg>
