<svg width="21" height="21" viewBox="0 0 21 21" fill="none" xmlns="http://www.w3.org/2000/svg">
<g id="svg">
<path id="Vector" d="M10.5111 12.0273C9.92409 12.0273 9.38427 11.8837 8.89168 11.5967C8.39909 11.3115 8.0065 10.9189 7.7139 10.4189C7.41946 9.91892 7.27224 9.37911 7.27224 8.79948C7.27224 8.21985 7.41946 7.68374 7.7139 7.19115C8.0065 6.69855 8.39909 6.30966 8.89168 6.02448C9.38427 5.73744 9.92038 5.59392 10.5 5.59392C11.0796 5.59392 11.6158 5.73744 12.1083 6.02448C12.6009 6.30966 12.9935 6.69855 13.2861 7.19115C13.5806 7.68374 13.7278 8.22355 13.7278 8.81059C13.7278 9.39578 13.5806 9.93559 13.2861 10.43C12.9935 10.9226 12.6009 11.3115 12.1083 11.5967C11.6158 11.8837 11.0833 12.0273 10.5111 12.0273ZM10.4889 6.83281H10.5111C9.96483 6.83281 9.49816 7.02541 9.11113 7.41059C8.72594 7.79763 8.53335 8.26429 8.53335 8.81059C8.53335 9.35689 8.72594 9.82263 9.11113 10.2078C9.49816 10.5948 9.96113 10.7884 10.5 10.7884C11.0389 10.7884 11.5019 10.5948 11.8889 10.2078C12.2741 9.82263 12.4667 9.35689 12.4667 8.81059C12.4667 8.26429 12.2741 7.79763 11.8889 7.41059C11.5019 7.02541 11.0352 6.83281 10.4889 6.83281ZM10.4889 19.18H10.5111C9.85742 19.18 9.23427 19.0606 8.64168 18.8217C8.04909 18.581 7.51946 18.2411 7.05279 17.8023C5.54724 16.3356 4.42224 14.8236 3.67779 13.2661C2.70557 11.2273 2.45187 9.18929 2.91668 7.15226C3.21113 5.85966 3.77131 4.74763 4.59724 3.81615C5.34168 2.97726 6.2602 2.33096 7.35279 1.87726C8.36576 1.46429 9.41113 1.25781 10.4889 1.25781H10.5111C11.6019 1.25781 12.6472 1.46429 13.6472 1.87726C14.7398 2.33096 15.6583 2.97726 16.4028 3.81615C17.2435 4.76059 17.8102 5.87911 18.1028 7.1717C18.5546 9.19578 18.2945 11.2337 17.3222 13.2856C16.5778 14.83 15.4528 16.3356 13.9472 17.8023C13.4806 18.2411 12.9509 18.581 12.3583 18.8217C11.7658 19.0606 11.1426 19.18 10.4889 19.18ZM10.4889 2.51615H10.5111C9.6315 2.51615 8.77872 2.66985 7.95279 2.97726C7.03427 3.33652 6.25464 3.85596 5.6139 4.53559C4.88242 5.33374 4.38983 6.29948 4.13613 7.43281C3.72316 9.20318 3.96298 11.0013 4.85557 12.8273C5.5352 14.2124 6.56113 15.5643 7.93335 16.8828C8.39816 17.3347 8.94446 17.6411 9.57224 17.8023C10.1982 17.9615 10.8204 17.9615 11.4389 17.8023C12.0593 17.6411 12.6019 17.3347 13.0667 16.8828C14.4389 15.5643 15.4648 14.2124 16.1445 12.8273C17.0371 11.0013 17.2833 9.20318 16.8833 7.43281C16.6167 6.29948 16.1241 5.33374 15.4056 4.53559C14.7667 3.85596 13.9806 3.33652 13.0472 2.97726C12.2343 2.66985 11.3815 2.51615 10.4889 2.51615Z" fill="#161616"/>
</g>
</svg>
