<svg width="16" height="12" viewBox="0 0 16 12" fill="none" xmlns="http://www.w3.org/2000/svg">
<path d="M15.02 1.56445H0.988177C0.934791 1.56445 0.88956 1.54593 0.852486 1.50889C0.815412 1.47185 0.796875 1.42667 0.796875 1.37333V0.622223C0.796875 0.568889 0.815412 0.522963 0.852486 0.484445C0.88956 0.447408 0.934791 0.428889 0.988177 0.428889H15.02C15.0734 0.428889 15.1193 0.447408 15.1579 0.484445C15.195 0.522963 15.2135 0.568889 15.2135 0.622223V1.37333C15.2135 1.42667 15.195 1.47185 15.1579 1.50889C15.1193 1.54593 15.0734 1.56445 15.02 1.56445ZM15.02 6.56667H0.988177C0.934791 6.56667 0.88956 6.54815 0.852486 6.51111C0.815412 6.47407 0.796875 6.42889 0.796875 6.37556V5.62444C0.796875 5.57111 0.815412 5.52593 0.852486 5.48889C0.88956 5.45185 0.934791 5.43333 0.988177 5.43333H15.02C15.0734 5.43333 15.1193 5.45185 15.1579 5.48889C15.195 5.52593 15.2135 5.57111 15.2135 5.62444V6.37556C15.2135 6.42889 15.195 6.47407 15.1579 6.51111C15.1193 6.54815 15.0734 6.56667 15.02 6.56667ZM8.84491 11.5711V11.5556H0.988177C0.934791 11.5556 0.88956 11.5393 0.852486 11.5067C0.815412 11.4741 0.796875 11.4311 0.796875 11.3778V10.6267C0.796875 10.5733 0.815412 10.5281 0.852486 10.4911C0.88956 10.4541 0.934791 10.4356 0.988177 10.4356H8.84491C8.8983 10.4356 8.94353 10.4541 8.98061 10.4911C9.01768 10.5281 9.03622 10.5733 9.03622 10.6267V11.3778C9.03622 11.4311 9.01768 11.477 8.98061 11.5156C8.94353 11.5526 8.8983 11.5711 8.84491 11.5711Z" fill="#161616"/>
</svg>
