<svg width="25" height="24" viewBox="0 0 25 24" fill="none" xmlns="http://www.w3.org/2000/svg">
<path d="M12.6638 21.9867C11.9432 21.9867 11.247 21.8467 10.5754 21.5667C9.90369 21.2867 9.3043 20.8911 8.7772 20.38L4.24008 15.8467C3.68184 15.2889 3.2626 14.6456 2.98237 13.9167C2.70214 13.19 2.58537 12.4433 2.63208 11.6767L2.87228 6.66667C2.90564 5.88222 3.12249 5.15889 3.52282 4.49667C3.92093 3.83222 4.44804 3.30444 5.10414 2.91333C5.76024 2.52222 6.48084 2.30222 7.26594 2.25333L12.2801 2.01333C13.063 1.98222 13.8147 2.10667 14.5353 2.38667C15.2559 2.66667 15.8953 3.07778 16.4536 3.62L20.9907 8.15333C21.6935 8.87111 22.1695 9.70222 22.4186 10.6467C22.6654 11.5889 22.6654 12.5356 22.4186 13.4867C22.1695 14.4378 21.6935 15.2644 20.9907 15.9667L16.5737 20.3567C16.0621 20.8833 15.4672 21.2867 14.7889 21.5667C14.1083 21.8467 13.3999 21.9867 12.6638 21.9867ZM5.29763 14.77L9.83141 19.3C10.3429 19.8111 10.9468 20.1589 11.6429 20.3433C12.339 20.5278 13.0307 20.5278 13.718 20.3433C14.4074 20.1589 15.0079 19.8111 15.5195 19.3L19.9098 14.9133C20.4391 14.4022 20.7916 13.7989 20.9673 13.1033C21.143 12.4078 21.143 11.7167 20.9673 11.03C20.7916 10.3411 20.4391 9.74111 19.9098 9.23L15.376 4.7C14.9757 4.3 14.512 3.99556 13.9849 3.78667C13.4555 3.58 12.9029 3.49222 12.3268 3.52333L7.33599 3.76333C6.80889 3.79667 6.32071 3.94444 5.87144 4.20667C5.4244 4.47111 5.06522 4.82667 4.79388 5.27333C4.52032 5.72222 4.37575 6.21 4.36018 6.73667L4.11998 11.7467C4.08885 12.3067 4.1767 12.8511 4.38354 13.38C4.5926 13.9067 4.8973 14.37 5.29763 14.77ZM10.095 12.7567C9.51892 12.7567 8.97959 12.6089 8.47694 12.3133C7.97208 12.0156 7.5762 11.6189 7.28929 11.1233C7.00016 10.6278 6.8556 10.0889 6.8556 9.50667C6.8556 8.92222 7.00016 8.37889 7.28929 7.87667C7.5762 7.37222 7.97208 6.97667 8.47694 6.69C8.97959 6.40111 9.52337 6.25667 10.1083 6.25667C10.691 6.25667 11.2303 6.40111 11.7263 6.69C12.2223 6.97667 12.6193 7.37222 12.9173 7.87667C13.2131 8.37889 13.361 8.92222 13.361 9.50667C13.361 10.0889 13.2131 10.6278 12.9173 11.1233C12.6193 11.6189 12.2223 12.0156 11.7263 12.3133C11.2303 12.6089 10.6866 12.7567 10.095 12.7567ZM10.095 7.74333C9.61678 7.74333 9.20533 7.91556 8.8606 8.26C8.51587 8.60444 8.3435 9.01556 8.3435 9.49333C8.3435 9.97333 8.51587 10.3856 8.8606 10.73C9.20533 11.0722 9.61678 11.2433 10.095 11.2433C10.5754 11.2433 10.9879 11.0722 11.3327 10.73C11.6752 10.3856 11.8464 9.97333 11.8464 9.49333C11.8464 9.01556 11.6752 8.60444 11.3327 8.26C10.9879 7.91556 10.5754 7.74333 10.095 7.74333ZM13.6012 17.7433C13.3921 17.7433 13.2153 17.6711 13.0708 17.5267C12.9284 17.3822 12.8573 17.2067 12.8573 17C12.8573 16.7911 12.9284 16.6144 13.0708 16.47L17.0774 12.4667C17.222 12.3244 17.3988 12.2533 17.6079 12.2533C17.8147 12.2533 17.9904 12.3244 18.135 12.4667C18.2796 12.6111 18.3518 12.7878 18.3518 12.9967C18.3518 13.2033 18.2796 13.3789 18.135 13.5233L14.1283 17.5267C13.9838 17.6711 13.8081 17.7433 13.6012 17.7433Z" fill="#161616"/>
</svg>
