<svg width="16" height="16" viewBox="0 0 16 16" fill="none" xmlns="http://www.w3.org/2000/svg">
<g id="svg">
<path id="Vector" d="M8.30529 8.47291C7.64469 8.47291 7.03902 8.31041 6.48829 7.98541C5.93894 7.66041 5.50364 7.22291 5.18238 6.67291C4.86251 6.1243 4.70257 5.52499 4.70257 4.87499C4.70257 4.22638 4.86251 3.62708 5.18238 3.07708C5.50364 2.52847 5.93894 2.09166 6.48829 1.76666C7.03902 1.44166 7.6419 1.27916 8.29694 1.27916C8.95198 1.27916 9.55487 1.44166 10.1056 1.76666C10.6549 2.09166 11.0902 2.52847 11.4115 3.07708C11.7314 3.62708 11.8913 4.22638 11.8913 4.87499C11.8913 5.52499 11.7314 6.1243 11.4115 6.67291C11.0902 7.22291 10.6549 7.66041 10.1056 7.98541C9.55487 8.31041 8.95476 8.47291 8.30529 8.47291ZM8.30529 2.22291C7.81436 2.22291 7.36654 2.34305 6.96183 2.58333C6.55713 2.82222 6.23447 3.14444 5.99388 3.54999C5.75328 3.95416 5.63298 4.39583 5.63298 4.87499C5.63298 5.35555 5.75328 5.79791 5.99388 6.20208C6.23447 6.60624 6.55713 6.92846 6.96183 7.16874C7.36654 7.40763 7.81158 7.52708 8.29694 7.52708C8.78231 7.52708 9.22735 7.40763 9.63206 7.16874C10.0368 6.92846 10.3594 6.60624 10.6 6.20208C10.8406 5.79791 10.9609 5.35555 10.9609 4.87499C10.9609 4.39583 10.8406 3.95416 10.6 3.54999C10.3594 3.14444 10.0368 2.82222 9.63206 2.58333C9.22735 2.34305 8.78509 2.22291 8.30529 2.22291ZM13.677 14.7208C13.5463 14.7208 13.4357 14.6757 13.3453 14.5854C13.2563 14.4965 13.2118 14.3868 13.2118 14.2562C13.2118 13.5465 12.9865 12.8875 12.5359 12.2792C12.0951 11.6889 11.5047 11.2243 10.7648 10.8854C10.0055 10.5257 9.18285 10.3458 8.29694 10.3458C7.41104 10.3458 6.58842 10.5257 5.82907 10.8854C5.0892 11.2243 4.49883 11.6889 4.05797 12.2792C3.60737 12.8875 3.38207 13.5465 3.38207 14.2562C3.38207 14.3757 3.33756 14.4833 3.24855 14.5792C3.15816 14.6736 3.04759 14.7208 2.91686 14.7208C2.78752 14.7208 2.67766 14.6757 2.58726 14.5854C2.49686 14.4965 2.45166 14.3868 2.45166 14.2562C2.45166 13.3771 2.71729 12.5632 3.24855 11.8146C3.76869 11.0743 4.46893 10.4944 5.34927 10.075C6.25881 9.62638 7.24137 9.40208 8.29694 9.40208C9.35252 9.40208 10.3351 9.62638 11.2446 10.075C12.125 10.4944 12.8252 11.0743 13.3453 11.8146C13.8766 12.5632 14.1422 13.3771 14.1422 14.2562C14.1422 14.3757 14.097 14.4833 14.0066 14.5792C13.9162 14.6736 13.8064 14.7208 13.677 14.7208Z" fill="#161616"/>
</g>
</svg>
