<svg width="27" height="26" viewBox="0 0 27 26" fill="none" xmlns="http://www.w3.org/2000/svg">
<g id="svg">
<path id="Vector" d="M21.6829 17.875H20.5671C20.3986 17.875 20.2457 17.8076 20.1085 17.6728C19.9737 17.538 19.9062 17.3851 19.9062 17.2142V5.53583C19.9062 5.36731 19.9737 5.21444 20.1085 5.07722C20.2457 4.94241 20.3986 4.875 20.5671 4.875H21.6829C21.8538 4.875 22.0067 4.94241 22.1415 5.07722C22.2763 5.21444 22.3438 5.36731 22.3438 5.53583V17.2142C22.3438 17.3851 22.2763 17.538 22.1415 17.6728C22.0067 17.8076 21.8538 17.875 21.6829 17.875ZM11.9329 17.875H10.8171C10.6486 17.875 10.4957 17.8076 10.3585 17.6728C10.2237 17.538 10.1562 17.3851 10.1562 17.2142V7.16083C10.1562 6.99231 10.2237 6.83944 10.3585 6.70222C10.4957 6.56741 10.6486 6.5 10.8171 6.5H11.9329C12.1038 6.5 12.2567 6.56741 12.3915 6.70222C12.5263 6.83944 12.5938 6.99231 12.5938 7.16083V17.2142C12.5938 17.3851 12.5263 17.538 12.3915 17.6728C12.2567 17.8076 12.1038 17.875 11.9329 17.875ZM16.8079 17.875H15.6921C15.5236 17.875 15.3707 17.8076 15.2335 17.6728C15.0987 17.538 15.0312 17.3851 15.0312 17.2142V10.4108C15.0312 10.2423 15.0987 10.0894 15.2335 9.95222C15.3707 9.81741 15.5236 9.75 15.6921 9.75H16.8079C16.9788 9.75 17.1317 9.81741 17.2665 9.95222C17.4013 10.0894 17.4688 10.2423 17.4688 10.4108V17.2142C17.4688 17.3851 17.4013 17.538 17.2665 17.6728C17.1317 17.8076 16.9788 17.875 16.8079 17.875ZM2.84375 20.3125H25.5938C25.8297 20.3125 26.0247 20.3883 26.1788 20.54C26.3304 20.6941 26.4062 20.8891 26.4062 21.125V21.9375C26.4062 22.1734 26.3304 22.3684 26.1788 22.5225C26.0247 22.6742 25.8297 22.75 25.5938 22.75H2.03125C1.59069 22.75 1.21032 22.5887 0.890139 22.2661C0.567546 21.9459 0.40625 21.5656 0.40625 21.125V4.0625C0.40625 3.82657 0.482083 3.63157 0.63375 3.4775C0.787824 3.32583 0.982824 3.25 1.21875 3.25H2.03125C2.26718 3.25 2.46218 3.32583 2.61625 3.4775C2.76792 3.63157 2.84375 3.82657 2.84375 4.0625V20.3125ZM7.05792 17.875H5.94208C5.77356 17.875 5.62069 17.8076 5.48347 17.6728C5.34866 17.538 5.28125 17.3851 5.28125 17.2142V13.6608C5.28125 13.4923 5.34866 13.3394 5.48347 13.2022C5.62069 13.0674 5.77356 13 5.94208 13H7.05792C7.22884 13 7.38171 13.0674 7.51653 13.2022C7.65134 13.3394 7.71875 13.4923 7.71875 13.6608V17.2142C7.71875 17.3851 7.65134 17.538 7.51653 17.6728C7.38171 17.8076 7.22884 17.875 7.05792 17.875Z" fill="#E6212A"/>
</g>
</svg>
