<svg width="12" height="9" viewBox="0 0 12 9" fill="none" xmlns="http://www.w3.org/2000/svg">
<path d="M7.38592 8.90027C7.2645 8.90027 7.16137 8.85879 7.0765 8.77583C6.99164 8.69157 6.94921 8.58851 6.94921 8.46666C6.94921 8.3461 6.99164 8.2437 7.0765 8.15944L10.3293 4.92971L7.0765 1.68444C6.99164 1.60018 6.94921 1.49777 6.94921 1.37721C6.94921 1.25536 6.99164 1.15231 7.0765 1.06805C7.16137 0.985085 7.2645 0.943604 7.38592 0.943604C7.50864 0.943604 7.61178 0.985085 7.69534 1.06805L11.2595 4.60694C11.3444 4.6912 11.3868 4.7962 11.3868 4.92194C11.3868 5.04768 11.3444 5.15268 11.2595 5.23694L7.69534 8.77583C7.61178 8.85879 7.50864 8.90027 7.38592 8.90027ZM10.8522 5.36333H0.962587C0.84117 5.36333 0.738032 5.3186 0.65317 5.22916C0.568309 5.14101 0.525879 5.0386 0.525879 4.92194C0.525879 4.80527 0.568309 4.70286 0.65317 4.61471C0.738032 4.52527 0.84117 4.48055 0.962587 4.48055H10.8522C10.9736 4.48055 11.0767 4.52527 11.1616 4.61471C11.2451 4.70286 11.2869 4.80527 11.2869 4.92194C11.2869 5.0386 11.2451 5.14101 11.1616 5.22916C11.0767 5.3186 10.9736 5.36333 10.8522 5.36333Z" fill="#E6212A"/>
</svg>
