<svg width="15" height="15" viewBox="0 0 15 15" fill="none" xmlns="http://www.w3.org/2000/svg">
<g id="svg">
<path id="Vector" d="M9.33905 11.6502C9.21763 11.6502 9.11449 11.6087 9.02963 11.5258C8.94477 11.4415 8.90234 11.3384 8.90234 11.2166C8.90234 11.096 8.94477 10.9936 9.02963 10.9094L12.2824 7.67965L9.02963 4.43438C8.94477 4.35012 8.90234 4.24771 8.90234 4.12715C8.90234 4.0053 8.94477 3.90225 9.02963 3.81799C9.11449 3.73502 9.21763 3.69354 9.33905 3.69354C9.46177 3.69354 9.56491 3.73502 9.64846 3.81799L13.2126 7.35688C13.2975 7.44114 13.3399 7.54613 13.3399 7.67188C13.3399 7.79762 13.2975 7.90262 13.2126 7.98688L9.64846 11.5258C9.56491 11.6087 9.46177 11.6502 9.33905 11.6502ZM12.8053 8.11326H2.91571C2.7943 8.11326 2.69116 8.06854 2.6063 7.9791C2.52143 7.89095 2.479 7.78854 2.479 7.67188C2.479 7.55521 2.52143 7.4528 2.6063 7.36465C2.69116 7.27521 2.7943 7.23049 2.91571 7.23049H12.8053C12.9267 7.23049 13.0299 7.27521 13.1147 7.36465C13.1983 7.4528 13.24 7.55521 13.24 7.67188C13.24 7.78854 13.1983 7.89095 13.1147 7.9791C13.0299 8.06854 12.9267 8.11326 12.8053 8.11326Z" fill="#E6212A"/>
</g>
</svg>
