<svg width="25" height="24" viewBox="0 0 25 24" fill="none" xmlns="http://www.w3.org/2000/svg">
<path d="M9.53085 16.0167C9.33958 16.0167 9.16722 15.9444 9.01376 15.8C8.86252 15.6556 8.7869 15.48 8.7869 15.2733C8.7869 15.0644 8.85918 14.8889 9.00375 14.7467L15.5759 8.2C15.7205 8.05556 15.8973 7.98333 16.1063 7.98333C16.3132 7.98333 16.4889 8.05556 16.6334 8.2C16.778 8.34444 16.8503 8.52 16.8503 8.72667C16.8503 8.93556 16.778 9.11111 16.6334 9.25333L10.0813 15.8C9.92118 15.9444 9.73769 16.0167 9.53085 16.0167ZM9.96121 11.1C9.40297 11.1 8.93147 10.9089 8.5467 10.5267C8.16194 10.1422 7.96955 9.67778 7.96955 9.13333C7.96955 8.59111 8.16194 8.12445 8.5467 7.73333C8.93147 7.34 9.39963 7.14333 9.9512 7.14333C10.5028 7.14333 10.9698 7.34 11.3524 7.73333C11.7371 8.12445 11.9295 8.59111 11.9295 9.13333C11.9295 9.67778 11.7371 10.1422 11.3524 10.5267C10.9698 10.9089 10.5061 11.1 9.96121 11.1ZM9.96121 8.65667C9.81887 8.65667 9.70322 8.70444 9.61426 8.8C9.52529 8.89556 9.48081 9.01111 9.48081 9.14667C9.48081 9.28222 9.52529 9.39445 9.61426 9.48333C9.70322 9.57 9.81554 9.61333 9.9512 9.61333C10.0869 9.61333 10.2025 9.57 10.2982 9.48333C10.3938 9.39445 10.4416 9.28222 10.4416 9.14667C10.4416 9.01111 10.3938 8.89556 10.2982 8.8C10.2025 8.70444 10.0902 8.65667 9.96121 8.65667ZM16.49 16.83C15.9451 16.83 15.4814 16.6389 15.0988 16.2567C14.7141 15.8722 14.5217 15.4089 14.5217 14.8667C14.5217 14.3222 14.7141 13.8544 15.0988 13.4633C15.4814 13.0722 15.9451 12.8767 16.49 12.8767C17.0327 12.8767 17.5008 13.0722 17.8945 13.4633C18.2859 13.8544 18.4816 14.3222 18.4816 14.8667C18.4816 15.4089 18.2859 15.8722 17.8945 16.2567C17.5008 16.6389 17.0327 16.83 16.49 16.83ZM16.49 14.3867C16.361 14.3867 16.2487 14.4344 16.153 14.53C16.0574 14.6256 16.0096 14.7411 16.0096 14.8767C16.0096 15.0122 16.0574 15.1244 16.153 15.2133C16.2487 15.3 16.3643 15.3433 16.5 15.3433C16.6357 15.3433 16.748 15.3 16.8369 15.2133C16.9259 15.1244 16.9704 15.0122 16.9704 14.8767C16.9704 14.7411 16.9259 14.6256 16.8369 14.53C16.748 14.4344 16.6323 14.3867 16.49 14.3867ZM12.9871 22.7533C11.0343 22.7533 9.21837 22.2656 7.5392 21.29C5.92229 20.3322 4.63455 19.0456 3.67598 17.43C2.69961 15.7522 2.21143 13.9422 2.21143 12C2.21143 10.0578 2.69961 8.24778 3.67598 6.57C4.63455 4.95444 5.92229 3.66778 7.5392 2.71C9.21837 1.73444 11.0299 1.24667 12.9737 1.24667C14.9176 1.24667 16.7291 1.73444 18.4082 2.71C20.0251 3.66778 21.3129 4.95444 22.2715 6.57C23.2478 8.24778 23.736 10.0578 23.736 12C23.736 13.9422 23.2478 15.7522 22.2715 17.43C21.3129 19.0456 20.0251 20.3322 18.4082 21.29C16.7291 22.2656 14.922 22.7533 12.9871 22.7533ZM12.9871 2.75667C11.3057 2.75667 9.74548 3.17222 8.3065 4.00333C6.91423 4.83444 5.80219 5.94556 4.97039 7.33667C4.13859 8.77444 3.72268 10.3289 3.72268 12C3.72268 13.6711 4.13859 15.2256 4.97039 16.6633C5.80219 18.0544 6.91423 19.1656 8.3065 19.9967C9.74548 20.8278 11.3012 21.2433 12.9737 21.2433C14.6462 21.2433 16.202 20.8278 17.6409 19.9967C19.0332 19.1656 20.1452 18.0544 20.9771 16.6633C21.8089 15.2256 22.2248 13.6711 22.2248 12C22.2248 10.3289 21.8089 8.77444 20.9771 7.33667C20.1452 5.94556 19.0332 4.83444 17.6409 4.00333C16.202 3.17222 14.6507 2.75667 12.9871 2.75667Z" fill="#161616"/>
</svg>
