<svg width="25" height="24" viewBox="0 0 25 24" fill="none" xmlns="http://www.w3.org/2000/svg">
<g id="svg">
<path id="Vector" d="M11.5197 21.7467C9.66259 21.7467 7.93448 21.2833 6.33537 20.3567C4.78297 19.4456 3.55862 18.2144 2.66231 16.6633C1.71931 15.0811 1.2478 13.3633 1.2478 11.51C1.2478 9.65444 1.71931 7.92778 2.66231 6.33C3.55862 4.77889 4.78297 3.55555 6.33537 2.66C7.93448 1.71778 9.66259 1.24667 11.5197 1.24667C13.3746 1.24667 15.0938 1.71778 16.6773 2.66C18.2297 3.55555 19.4619 4.77889 20.3737 6.33C21.3012 7.92778 21.7649 9.65444 21.7649 11.51C21.7649 13.3633 21.3012 15.0811 20.3737 16.6633C19.4619 18.2144 18.2297 19.4456 16.6773 20.3567C15.0938 21.2833 13.3746 21.7467 11.5197 21.7467ZM11.5197 2.75667C9.93392 2.75667 8.4538 3.15667 7.07933 3.95667C5.76712 4.72333 4.72737 5.77 3.96006 7.09667C3.15939 8.45444 2.75906 9.92555 2.75906 11.51C2.75906 13.0922 3.15939 14.5622 3.96006 15.92C4.72737 17.2311 5.76712 18.2778 7.07933 19.06C8.4538 19.86 9.93392 20.26 11.5197 20.26C13.1032 20.26 14.5745 19.86 15.9334 19.06C17.2456 18.2778 18.2931 17.2311 19.076 15.92C19.8766 14.5622 20.277 13.0922 20.277 11.51C20.277 9.92555 19.8766 8.45444 19.076 7.09667C18.2931 5.77 17.2456 4.72333 15.9334 3.95667C14.5745 3.15667 13.1032 2.75667 11.5197 2.75667ZM22.0284 22.7533C21.8194 22.7533 21.6359 22.6811 21.478 22.5367L19.4863 20.5233C19.3418 20.3789 19.2695 20.2033 19.2695 19.9967C19.2695 19.7878 19.3418 19.6122 19.4863 19.47C19.6287 19.3256 19.8044 19.2533 20.0134 19.2533C20.2203 19.2533 20.396 19.3256 20.5405 19.47L22.5555 21.46C22.7001 21.6178 22.7724 21.8011 22.7724 22.01C22.7724 22.2189 22.7001 22.3944 22.5555 22.5367C22.4132 22.6811 22.2375 22.7533 22.0284 22.7533Z" fill="#646464"/>
</g>
</svg>
