<svg width="16" height="16" viewBox="0 0 16 16" fill="none" xmlns="http://www.w3.org/2000/svg">
<g id="svg">
<path id="Vector" d="M13.9479 4.67292C13.9674 4.75069 13.9771 4.87708 13.9771 5.05208C13.9771 6.08819 13.7819 7.11875 13.3917 8.14375C13 9.16875 12.4479 10.1062 11.7354 10.9563C11.0229 11.8062 10.1 12.4944 8.96667 13.0208C7.83333 13.5486 6.58333 13.8125 5.21667 13.8125C3.49861 13.8125 1.92639 13.3535 0.5 12.4354C0.715278 12.4549 0.959722 12.4646 1.23333 12.4646C2.65833 12.4646 3.9375 12.025 5.07083 11.1458C4.3875 11.1458 3.78681 10.9458 3.26875 10.5458C2.75069 10.1458 2.39444 9.64306 2.2 9.0375C2.39444 9.05694 2.57986 9.06667 2.75625 9.06667C3.02986 9.06667 3.30347 9.0375 3.57708 8.97917C2.87292 8.82222 2.28681 8.46042 1.81875 7.89375C1.34931 7.32847 1.11458 6.68403 1.11458 5.96042V5.90208C1.54514 6.15625 2.00417 6.29306 2.49167 6.3125C1.57361 5.6875 1.11458 4.82847 1.11458 3.73542C1.11458 3.18819 1.26111 2.67014 1.55417 2.18125C2.31667 3.13819 3.24931 3.9 4.35208 4.46667C5.45625 5.03333 6.63333 5.34583 7.88333 5.40417C7.84444 5.16944 7.825 4.93542 7.825 4.70208C7.825 3.86181 8.12292 3.13889 8.71875 2.53333C9.31319 1.92778 10.0306 1.625 10.8708 1.625C11.7694 1.625 12.5215 1.94722 13.1271 2.59167C13.8299 2.45556 14.484 2.21181 15.0896 1.86042C14.8549 2.58264 14.4056 3.14861 13.7417 3.55833C14.3278 3.48056 14.9139 3.31458 15.5 3.06042C15.0708 3.68542 14.5535 4.22292 13.9479 4.67292Z" fill="#646464"/>
</g>
</svg>
