<svg width="25" height="25" viewBox="0 0 25 25" fill="none" xmlns="http://www.w3.org/2000/svg">
<g id="svg">
<path id="Vector" d="M12.0903 22.525H12.1169C11.7811 22.525 11.4931 22.485 11.2529 22.405C9.8117 21.9094 8.38718 21.1106 6.97934 20.0083C5.3313 18.7461 4.02799 17.2917 3.06941 15.645C1.91734 13.7272 1.34131 11.6972 1.34131 9.555C1.34131 8.41944 1.62488 7.36389 2.19202 6.38833C2.76138 5.415 3.5298 4.64389 4.49727 4.075C5.46474 3.50833 6.51673 3.225 7.65323 3.225C8.5006 3.225 9.30794 3.385 10.0752 3.705C10.8426 4.025 11.5231 4.48055 12.1169 5.07167C12.693 4.48055 13.368 4.025 14.142 3.705C14.9182 3.385 15.7222 3.225 16.554 3.225C17.6905 3.225 18.7425 3.50833 19.7099 4.075C20.6774 4.64389 21.4458 5.415 22.0152 6.38833C22.5823 7.36389 22.8659 8.41944 22.8659 9.555C22.8659 11.6972 22.2899 13.735 21.1378 15.6683C20.1792 17.2994 18.8759 18.7461 17.2279 20.0083C15.82 21.1106 14.3955 21.9094 12.9543 22.405C12.7141 22.485 12.4261 22.525 12.0903 22.525ZM7.65323 4.735C6.78807 4.735 5.9874 4.95055 5.25123 5.38167C4.51729 5.81278 3.93347 6.40055 3.49977 7.145C3.0683 7.88722 2.85257 8.69055 2.85257 9.555C2.85257 11.1528 3.20508 12.6706 3.91011 14.1083C4.51729 15.3394 5.35687 16.4828 6.42888 17.5383C7.29182 18.4006 8.27597 19.1594 9.38134 19.815C10.2443 20.3594 11.0283 20.7517 11.7333 20.9917C11.8289 21.0228 11.9568 21.0383 12.1169 21.0383C12.2771 21.0383 12.3961 21.0228 12.4739 20.9917C13.1789 20.7517 13.9718 20.3683 14.8526 19.8417C15.9401 19.1683 16.9232 18.4006 17.8017 17.5383C18.8737 16.4828 19.7055 15.3483 20.2971 14.135C21.0177 12.6794 21.378 11.1528 21.378 9.555C21.378 8.69055 21.1623 7.88722 20.7308 7.145C20.2993 6.40055 19.711 5.81278 18.966 5.38167C18.2231 4.95055 17.4191 4.735 16.554 4.735C15.8022 4.735 15.0872 4.90278 14.4089 5.23833C13.7283 5.57389 13.1634 6.045 12.7141 6.65167C12.5718 6.845 12.3727 6.94167 12.1169 6.94167C11.8612 6.94167 11.661 6.845 11.5164 6.65167C11.0672 6.045 10.5034 5.56944 9.82504 5.225C9.14447 4.88278 8.42054 4.71944 7.65323 4.735Z" fill="#161616"/>
</g>
</svg>
