<svg width="17" height="16" viewBox="0 0 17 16" fill="none" xmlns="http://www.w3.org/2000/svg">
<g id="svg">
<path id="Vector" d="M16.1173 3.85208C16.2159 4.22292 16.2895 4.73056 16.3382 5.375C16.3868 6.01944 16.4208 6.57639 16.4403 7.04583V7.71875C16.4403 9.47708 16.3326 10.7757 16.1173 11.6146C15.9228 12.3382 15.4441 12.8069 14.6814 13.0208C14.3105 13.1194 13.6075 13.1931 12.5725 13.2417C11.5374 13.2903 10.5899 13.3243 9.72995 13.3438H8.43998C5.09872 13.3438 3.01824 13.2361 2.19855 13.0208C1.43583 12.8069 0.957212 12.3382 0.76271 11.6146C0.664069 11.2437 0.590436 10.7312 0.541811 10.0771C0.493185 9.42292 0.459147 8.87153 0.439697 8.42292V7.71875C0.439697 5.97986 0.547368 4.69097 0.76271 3.85208C0.859961 3.50069 1.03571 3.19792 1.28995 2.94375C1.54419 2.68958 1.84706 2.51389 2.19855 2.41667C2.56949 2.31806 3.27248 2.24444 4.30751 2.19583C5.34393 2.14722 6.29143 2.11319 7.15002 2.09375H8.43998C11.7813 2.09375 13.8617 2.20139 14.6814 2.41667C15.0329 2.51389 15.3358 2.68958 15.59 2.94375C15.8443 3.19792 16.02 3.50069 16.1173 3.85208ZM6.79991 5.34583V10.1208L10.9887 7.71875L6.79991 5.34583Z" fill="#646464"/>
</g>
</svg>
